/* XPM */
static const char *apple[] = {
/* columns rows colors chars-per-pixel */
"40 40 134 2 ",
"  	c None",
". 	c #FFFFFF",
"X  c #090B08",
"o  c #1D0402",
"O  c #0A1A08",
"+  c #141618",
"@  c #240503",
"#  c #280602",
"$  c #2E0A07",
"%  c #300703",
"&  c #300905",
"*  c #330B08",
"=  c #0D230A",
"-  c #1C2819",
";  c #202D1D",
":  c #273523",
">  c #2B3C27",
",  c #460701",
"<  c #450D07",
"1  c #4C0A04",
"2  c #440C08",
"3  c #520A03",
"4  c #5A0D04",
"5  c #5C1F16",
"6  c #670C03",
"7  c #690D05",
"8  c #740E04",
"9  c #7A0F03",
"0  c #6C160B",
"q  c #7A1105",
"w  c #641C12",
"e  c #5E261D",
"r  c #63241B",
"t  c #68251B",
"y  c #69281E",
"u  c #7E261A",
"i  c #1A4613",
"p  c #236617",
"a  c #25651B",
"s  c #295923",
"d  c #385A33",
"f  c #387A2E",
"g  c #4C7C44",
"h  c #841104",
"j  c #8B1103",
"k  c #86180A",
"l  c #9F1B0B",
"z  c #9C1303",
"x  c #A41403",
"c  c #AA1402",
"v  c #B41402",
"b  c #BB1602",
"n  c #B91A07",
"m  c #B22E1B",
"M  c #922E20",
"N  c #853123",
"B  c #8B3326",
"V  c #A4382B",
"C  c #AD3D2A",
"Z  c #B83F2D",
"A  c #C11501",
"S  c #CA1702",
"D  c #C61802",
"F  c #CB1A04",
"G  c #CF1F09",
"H  c #D01F09",
"J  c #D2250F",
"K  c #C92F1A",
"L  c #D32610",
"P  c #D52A14",
"I  c #D72F18",
"U  c #D82F19",
"Y  c #D9311B",
"T  c #C53F2A",
"R  c #DF3E26",
"E  c #E03F27",
"W  c #BA4632",
"Q  c #C54430",
"!  c #CD4A35",
"~  c #CE4D38",
"^  c #DF4D37",
"/  c #D64F39",
"(  c #D94F3B",
")  c #E4452C",
"_  c #E5492F",
"`  c #EA4D35",
"'  c #EC4E38",
"]  c #EE523B",
"[  c #F0503D",
"{  c #F25A3F",
"}  c #D25540",
"|  c #F35442",
" . c #F35C42",
".. c #F75C49",
"X. c #F85D4A",
"o. c #D6604B",
"O. c #E3664E",
"+. c #F86147",
"@. c #F2604A",
"#. c #F9624A",
"$. c #F96650",
"%. c #F76A51",
"&. c #FC6C53",
"*. c #FB7057",
"=. c #FC745A",
"-. c #FE785F",
";. c #FD7C63",
":. c #3D9E2D",
">. c #45C62E",
",. c #4BC736",
"<. c #5F8C55",
"1. c #669A5C",
"2. c #56AB49",
"3. c #68D657",
"4. c #63E84D",
"5. c #FC8067",
"6. c #FC846C",
"7. c #FC8771",
"8. c #FF8973",
"9. c #FC8F7B",
"0. c #FB907C",
"q. c #81C673",
"w. c #87EF75",
"e. c #FA9788",
"r. c #FB9B8D",
"t. c #FC9582",
"y. c #FBA295",
"u. c #FBA79C",
"i. c #FBA89F",
"p. c #FBACA3",
"a. c #FAC1BD",
"s. c #FBC4C1",
"d. c #FBD6D4",
"f. c None",
/* pixels */
". . . . . . . . . . . . . . . . . . . . . . . . . . . . . . . . . . . . . . . . ",
". . . . . . . . . . . . . . . . . . . . . . . . . . . . . . . . . . . . . . . . ",
". . . . . . . . . . . . . . . . . . . . . . . . . . . . . . . . . . . . . . . . ",
". . . . . . . . . . . . . . . . . . . . . . . . . . . . . . . . . . . . . . . . ",
". . . . . . . . . . . . . . . . . . . . . . . . . . . . . . . . . . . . . . . . ",
". . . . . . . . . . . . . . X - > . . . . . . . . . . . . . . . . . . . . . . . ",
". . . . . . . . . . . . . . ; <.q.g . . . . . . . . . . . . . . . . . . . . . . ",
". . . . . . . . . . . . . . : 1.w.3.f . . . . . . . . . . . . . . . . . . . . . ",
". . . . . . . . . . . . . . ..d 2.4.,.a . . . ..X . . . . . . . . . . . . . . . ",
". . . . . . . . . . . . . . . . ..s :.>.p O . . . . . . . . . . . . . . . . . . ",
". . . . . . . . . . . . . . . . ..i i = . . . . . . . . . . . . . . . . . . . . ",
". . . . . . . . . . . . . . . . . . . = . . . . . . . . . . . . . . . . . . . . ",
". . . . . . . . . . . . . . . . . . . = . . . . . . . . . . . . . . . . . . . . ",
". . . . . . . . . . . . . . . < 4 4 4 & % 4 6 0 t . . . . . . . . . . . . . . . ",
". . . . . . . . . . . . . . < q q 9 h 1 , j x l u y . . . . . . . . . . . . . . ",
". . . . . . . . . . . . . 2 q x j 4 1 # @ , 3 0 M C N . . . . . . . . . . . . . ",
". . . . . . . . . . . . 2 8 c A b k w 5 5 r y B ~ ] Q N . . . . . . . . . . . . ",
". . . . . . . . . . . < 8 c A S H K T ! ~ } o.O.%.#.] Z r . . . . . . . . . . . ",
". . . . . . . . . . * 7 x b S H Y ) ] +.&.-.8.8.6.*.X.( B . . . . . . . . . . . ",
". . . . . . . . . . & 8 c A F P ) `  .&.5.t.u.i.r.5.&.@.W e . . . . . . . . . . ",
". . . . . . . . . . & 8 c A F Y _ ] ..*.9.p.s.s.p.0.;.&./ e + . . . . . . . . . ",
". . . . . . . . . . & 8 c b F Y _ ] ..*.0.p.s.d.a.y.6.&./ e + . . . . . . . . . ",
". . . . . . . . . . & 8 c b F Y _ ] ..*.6.e.p.a.s.p.7.&./ e + . . . . . . . . . ",
". . . . . . . . . . & 8 c A F Y _ ' | $.-.6.0.r.p.y.6.&./ e + . . . . . . . . . ",
". . . . . . . . . . $ 8 c A F I E _ ' | $.*.-.6.0.0.5.&./ e + . . . . . . . . . ",
". . . . . . . . . . . 4 z A F J Y R _ ' | ..$.*.=.=.*.#.! r . . . . . . . . . . ",
". . . . . . . . . . . * q v D F J Y R _ ' | |  . . .{ ^ V . . . . . . . . . . . ",
". . . . . . . . . . . . 3 j v D F J Y R _ ` ' ` _ ) R m w . . . . . . . . . . . ",
". . . . . . . . . . . . . 3 j v D F J P Y E ) R Y L n h 3 . . . . . . . . . . . ",
". . . . . . . . . . . . . . 1 j v D F F F J U P F b h 1 . . . . . . . . . . . . ",
". . . . . . . . . . . . . . . 3 j x v A A D F F v h 1 . . . . . . . . . . . . . ",
". . . . . . . . . . . . . . . ..1 6 9 j j j j j 8 1 . . . . . . . . . . . . . . ",
". . . . . . . . . . . . . . . . . o o @ # # # @ @ . . . . . . . . . . . . . . . ",
". . . . . . . . . . . . . . . . . . . . . . . . . . . . . . . . . . . . . . . . ",
". . . . . . . . . . . . . . . . . . . . . . . . . . . . . . . . . . . . . . . . ",
". . . . . . . . . . . . . . . . . . . . . . . . . . . . . . . . . . . . . . . . ",
". . . . . . . . . . . . . . . . . . . . . . . . . . . . . . . . . . . . . . . . ",
". . . . . . . . . . . . . . . . . . . . . . . . . . . . . . . . . . . . . . . . ",
". . . . . . . . . . . . . . . . . . . . . . . . . . . . . . . . . . . . . . . . ",
". . . . . . . . . . . . . . . . . . . . . . . . . . . . . . . . . . . . . . . . ",

};
