/* XPM */
static const char *player[] = {
/* columns rows colors chars-per-pixel */
"40 40 171 2 ",
"  	c None",
". 	c #FFFFFF",
"X  c #070708",
"o  c #080708",
"O  c #0B0A0B",
"+  c #120D0E",
"@  c #190B0C",
"#  c #0F0E12",
"$  c #110F12",
"%  c #151415",
"&  c #191614",
"*  c #1D1915",
"=  c #161419",
"-  c #19171B",
";  c #1C191C",
":  c #261214",
">  c #221718",
",  c #221D1E",
"<  c #201B15",
"1  c #34191C",
"2  c #2A241E",
"3  c #25211B",
"4  c #1C1920",
"5  c #211D22",
"6  c #3F0A31",
"7  c #242223",
"8  c #2E2923",
"9  c #2C2C2D",
"0  c #2B2526",
"q  c #342C24",
"w  c #342D2C",
"e  c #3A3327",
"r  c #3A332D",
"t  c #3E382F",
"y  c #37322C",
"u  c #2F2F30",
"i  c #302F31",
"p  c #343434",
"a  c #3E3832",
"s  c #3A3939",
"d  c #3C3739",
"f  c #552429",
"g  c #403729",
"h  c #423A2C",
"j  c #403631",
"k  c #443B3A",
"l  c #413A32",
"z  c #534939",
"x  c #5A4E3C",
"c  c #534539",
"v  c #5E513E",
"b  c #603046",
"n  c #633549",
"m  c #434343",
"M  c #4E4B4C",
"N  c #5D4F40",
"B  c #55514C",
"V  c #5B5447",
"C  c #524E52",
"Z  c #555556",
"A  c #5C5C5C",
"S  c #5E5A54",
"D  c #6D5C42",
"F  c #645953",
"G  c #7E5259",
"H  c #746E5C",
"J  c #606060",
"K  c #6D6B69",
"L  c #696766",
"P  c #7D7B78",
"I  c #81575C",
"U  c #836F50",
"Y  c #8A7756",
"T  c #88775A",
"R  c #927B7B",
"E  c #A5727D",
"W  c #9C845E",
"Q  c #A1885F",
"!  c #9D8660",
"~  c #99876A",
"^  c #928D76",
"/  c #99937A",
"(  c #A08761",
")  c #A38A60",
"_  c #AF956A",
"`  c #B68B7E",
"'  c #B29D7B",
"]  c #B6A17F",
"[  c #C4A777",
"{  c #C4A87A",
"}  c #CFB17F",
"|  c #B07F8D",
" . c #828282",
".. c #8F8F8F",
"X. c #988385",
"o. c #929292",
"O. c #999999",
"+. c #98969A",
"@. c #A68C8A",
"#. c #BD8F96",
"$. c #B0AB8F",
"%. c #9E9CA1",
"&. c #ACACAC",
"*. c #A2A2A2",
"=. c #B5B5B5",
"-. c #BBBBBB",
";. c #C19A85",
":. c #CFB282",
">. c #C7B088",
",. c #CCB48B",
"<. c #D4B685",
"1. c #D8B781",
"2. c #D0B88E",
"3. c #C9B19E",
"4. c #D4BB92",
"5. c #C7BAA3",
"6. c #DAB8AB",
"7. c #E0BFB1",
"8. c #DDC397",
"9. c #E1C18C",
"0. c #E8C792",
"q. c #E4C69A",
"w. c #E4CA9D",
"e. c #ECCE9C",
"r. c #EDD09E",
"t. c #F3D39E",
"y. c #D6CBBA",
"u. c #DCD7BE",
"i. c #EECEAF",
"p. c #EDD1A3",
"a. c #EDD2AA",
"s. c #F5D5A1",
"d. c #E0D8BC",
"f. c #C4C4C4",
"g. c #CAC5CE",
"h. c #CBCBCB",
"j. c #C5C0C9",
"k. c #DDCDC5",
"l. c #DCD7C6",
"z. c #DED0CB",
"x. c #CCC7D0",
"c. c #CDC8D1",
"v. c #D2CDD6",
"b. c #D3D3D4",
"n. c #DDDCDD",
"m. c #D7D3D9",
"M. c #E3DBC4",
"N. c #E1D9D8",
"B. c #DFDCE1",
"V. c #E0DEE2",
"C. c #E1E1E1",
"Z. c #E5E5E5",
"A. c #E4E3E5",
"S. c #E7E6E8",
"D. c #E8E7E9",
"F. c #EBEBEB",
"G. c #EAEAEA",
"H. c #E9E9E9",
"J. c #ECECEC",
"K. c #EDEDED",
"L. c #EEEEEE",
"P. c #EFEFEF",
"I. c #EAEAEB",
"U. c #F1F1F1",
"Y. c #F0F0F0",
"T. c #F2F2F2",
"R. c #F5F5F5",
"E. c #FAFAFA",
"W. c #FCFCFC",
"Q. c None",
"!. c black",
/* pixels */
". . . . . . . . . . . . . - = = = = = = = = = = = = - . . . . . . . . . . . . . ",
". . . . . . . . . . . X 7 &.f.f.f.f.f.f.f.f.f.f.f.f.-.m X o . . . . . . . . . . ",
". . . . . . . . . . L o.O.C.J.J.J.J.J.J.J.J.J.J.J.J.F.&...P ; . . . . . . . . . ",
". . . . . . . . .    .R.Y.J.Y.Y.J.J.J.J.J.J.J.J.J.Y.J.P.R.=.o . . . . . . . . . ",
". . . . . . . . . 7 o.J.J.J.R.R.J.J.J.J.J.J.J.J.Y.E.J.J.J.-.9 . . . . . . . . . ",
". . . . . . . . % &.Z.J.J.J.J.J.J.E.W.Y.Y.W.W.Y.J.J.J.J.J.Z.h.9 . . . . . . . . ",
". . . . . . . . % -.Y.J.J.J.J.J.J.Y.Y.J.J.Y.Y.J.J.J.J.J.J.J.n.9 . . . . . . . . ",
". . . . . . . . % =.J.J.J.J.J.J.J.J.J.J.J.J.J.J.J.J.J.J.J.H.b.9 . . . . . . . . ",
". . . . . . . . O =.Z.H.J.J.J.J.J.J.J.J.J.J.J.J.J.J.J.J.H.Z.h.9 . . . . . . . . ",
". . . . . . . . ; =.n.C.H.H.H.H.H.H.H.H.H.H.H.H.H.H.H.H.Z.n.h.p . . . . . . . . ",
". . . . . . . p &.b.n.n.C.C.C.C.C.C.C.C.C.C.C.C.C.C.C.C.n.n.n.-.Z o . . . . . . ",
". . . . . . . p b.C.O.A J J J J J J J J A J J J J J J J A  .n.C.A o . . . . . . ",
". . . . . . . p h.&.m   X X X       X X X X       X X X   9 O.b.A o . . . . . . ",
". . . . . . . p f.p # ; ; - - * * * - ; ; - * * * - - ; ; % = =.A o . . . . . . ",
". . . . . . . p f.9 O 5 5 O X x } >.q # = & ' <.U o o ; 5 = % =.A o . . . . . . ",
". . . . . . . p f.9 % 4 * Y Q { t.w.e # - & ,.s.<.) W q = - % =.A o . . . . . . ",
". . . . . . . p f.9 % - * :._ T ~ 8.e $ - & >.' T W 9.g # - % -.A o . . . . . . ",
". . . . . . . p *.7 % - * ,.z   8 4.v , , h 2.x   2 4.h # - $ o.A O . . . . . . ",
". . . . . . . . % X = - * ,.z   q 8.9.D h 1.e.N   8 4.h # 4   $ . . . . . . . . ",
". . . . . . . . .   % = * ,.G 6 n q.r.:.[ e.p.I 6 b 4.h # ;   . . . . . . . . . ",
". . . . . . . . .   % % * 3.#.E ` w.p.e.e.p.p.;.E | 6.a O =   . . . . . . . . . ",
". . . . . . . . .   % = * R 6.i.p.p.p.p.p.p.p.p.a.7.@.w $ =   . . . . . . . . . ",
". . . . . . . . .   $ ; = O ~ w.p.a.p.r.r.p.a.p.w.] * % ; %   . . . . . . . . . ",
". . . . . . . . . . X X X = * H d.N.z.q.0.y.N.M./ 3 - o X X . . . . . . . . . . ",
". . . . . . . . . . . . . O * ^ u.m.A.z.k.C.n.l.$.8 O . . . . . . . . . . . . . ",
". . . . . . . . . . . . .   & V 5.C.H.v.c.S.Z.y.H ,   . . . . . . . . . . . . . ",
". . . . . . . . . . . .   X - 5 S n.D.x.g.A.Z.P 5 ; o   . . . . . . . . . . . . ",
". . . . . . . . . . . . X * 5 w M b.D.x.g.A.Z.L r 7 , o . . . . . . . . . . . . ",
". . . . . . . . . . . . = +.C y B b.D.x.g.A.Z.K t d %.i . . . . . . . . . . . . ",
". . . . . . . . . . . . * 3.F r B b.H.x.g.A.Z.K a k 5.a . . . . . . . . . . . . ",
". . . . . . . . . . . . < W c r B b.H.v.v.A.Z.K l r ( e . . . . . . . . . . . . ",
". . . . . . . . . . . . . O * , s b.B.B.V.n.C.A * , O . . . . . . . . . . . . . ",
". . . . . . . . . . . . .   % $ 9 j.V.H.J.C.m.M o - X . . . . . . . . . . . . . ",
". . . . . . . . . . . . .   % O 9 b. .A A K b.Z o & X . . . . . . . . . . . . . ",
". . . . . . . . . . . . .   % O u b.s     = h.A o &   . . . . . . . . . . . . . ",
". . . . . . . . . . . . .   + O u b.s o + - h.A X %   . . . . . . . . . . . . . ",
". . . . . . . . . . . . . X X   , X.0   X % X.k   X X . . . . . . . . . . . . . ",
". . . . . . . . . . . . . . . % @ f @ O . . f : o . . . . . . . . . . . . . . . ",
". . . . . . . . . . . . . . . . > 1 > . . & 1 : . . . . . . . . . . . . . . . . ",
". . . . . . . . . . . . . . . . . o . . . . o . . . . . . . . . . . . . . . . . "
};
