/* XPM */
static char *b917491a90434f79e088ba4def69ee394oItKoUTyArBiYuV[] = {
/* columns rows colors chars-per-pixel */
"40 40 159 2 ",
"  	c None",
". 	c #FFFFFF",
"X  c #000001",
"o  c #010001",
"O  c #000002",
"+  c #020009",
"@  c #020109",
"#  c #02000A",
"$  c #080120",
"%  c #080021",
"&  c #080121",
"*  c #090121",
"=  c #080122",
"-  c #0D002C",
";  c #0E012D",
":  c #0E022C",
">  c #0F032C",
",  c #0E022D",
"<  c #0E022E",
"1  c #0F032E",
"2  c #10032D",
"3  c #0C0131",
"4  c #0D0132",
"5  c #0F0139",
"6  c #0F013A",
"7  c #0F013B",
"8  c #0F003D",
"9  c #0F013E",
"0  c #0F003F",
"q  c #130730",
"w  c #130631",
"e  c #130731",
"r  c #120432",
"t  c #130432",
"y  c #120532",
"u  c #120533",
"i  c #130732",
"p  c #150832",
"a  c #150833",
"s  c #160933",
"d  c #160A32",
"f  c #160A33",
"g  c #170A33",
"h  c #170B33",
"j  c #150834",
"k  c #170A34",
"l  c #180B34",
"z  c #180B35",
"x  c #180C34",
"c  c #190D34",
"v  c #180C35",
"b  c #190D35",
"n  c #190D36",
"m  c #1A0D36",
"M  c #190E36",
"N  c #1A0E36",
"B  c #170938",
"V  c #100040",
"C  c #100041",
"Z  c #110041",
"A  c #110141",
"S  c #100042",
"D  c #110042",
"F  c #19094A",
"G  c #1A094A",
"H  c #1B094A",
"J  c #1A0A4A",
"K  c #1A0A4B",
"L  c #211540",
"P  c #221440",
"I  c #231440",
"U  c #221540",
"Y  c #221441",
"T  c #231441",
"R  c #221444",
"E  c #221445",
"W  c #231547",
"Q  c #241547",
"!  c #251547",
"~  c #231548",
"^  c #241548",
"/  c #251548",
"(  c #261657",
")  c #271657",
"_  c #312157",
"`  c #302256",
"'  c #312258",
"]  c #35255C",
"[  c #35255D",
"{  c #36255D",
"}  c #37255D",
"|  c #35255E",
" . c #3B2962",
".. c #3B2963",
"X. c #3B2A62",
"o. c #3B2A63",
"O. c #3D2D60",
"+. c #3D2D61",
"@. c #3D2E61",
"#. c #3D2D62",
"$. c #3B2964",
"%. c #382768",
"&. c #392768",
"*. c #402E67",
"=. c #402D69",
"-. c #402E68",
";. c #402E69",
":. c #402D6A",
">. c #402D6F",
",. c #402E6F",
"<. c #423165",
"1. c #423166",
"2. c #483575",
"3. c #483675",
"4. c #4E3A77",
"5. c #4D3B78",
"6. c #4E3A78",
"7. c #4E3B78",
"8. c #4E3A79",
"9. c #533E7D",
"0. c #533F7D",
"q. c #523F7E",
"w. c #533F7E",
"e. c #524869",
"r. c #524969",
"t. c #52496B",
"y. c #554773",
"u. c #554874",
"i. c #594782",
"p. c #594783",
"a. c #5B4A80",
"s. c #5B4A81",
"d. c #5D488A",
"f. c #5C498A",
"g. c #5D498A",
"h. c #5D498B",
"j. c #604C8D",
"k. c #624E8D",
"l. c #604C8E",
"z. c #614C8F",
"x. c #604D8F",
"c. c #62508A",
"v. c #63538A",
"b. c #64538A",
"n. c #61508C",
"m. c #655092",
"M. c #655192",
"N. c #655193",
"B. c #6A5597",
"V. c #6A5697",
"C. c #6B5892",
"Z. c #6A5994",
"A. c #6B5994",
"S. c #6B5498",
"D. c #6A5598",
"F. c #6B5598",
"G. c #6A5599",
"H. c #6B5599",
"J. c #6A559A",
/* pixels */
". . . . . . . . . . . . . . . . . . . . . . . . . . . . . . . . . . . . . . . . ",
". . . . . . . . . . . . . . . . . . . . . . . . . . . . . . . . . . . . . . . . ",
". . . . . . . . . . . . . . . . . . . . . . . . . . . . . . . . . . . . . . . . ",
". . . . . . . . . . . . . . . . . . . . . . . . . . . . . . . . . . . . . . . . ",
". . . . . . . . . . . Z.B.B.B.B.B.B.B.B.B.B.B.B.B.B.B.B.C.. . . . . . . . . . . ",
". . . . . . . . . . D.Y b b b b b b b b b b b b b b b b Y B.. . . . . . . . . . ",
". . . . . . . . . c.Y b b b b b , , , , , , , , b b b b b Y n.. . . . . . . . . ",
". . . . . . . . e.1.b b b b e e E Q Q Q Q Q Q E e e b b b b 1.e.. . . . . . . . ",
". . . . . . . e.i.b b b b g e e X.=.=.=.=.=.=.X.e e k b b b b i.e.. . . . . . . ",
". . . . . . c.1.b b b b e e X.X.M.D.D.D.D.D.D.M.X.X.e e b b b b 1.c.. . . . . . ",
". . . . . D.Y b b b b , Q =.D.D.K C C C C C C K D.D.=.^ , b b b b Y D.. . . . . ",
". . . . Z.Y b b b b , ' 6.f.K K C C C C C C C C K K f.6._ , b b b b Y Z.. . . . ",
". . . . D.b b b b e Q 4.3.&.C & & & & & & & & & & C &.3.6.^ e b b b b D.. . . . ",
". . . . D.b b b g e =.f.&.C 7 X X X X X X X X X X 7 C &.f.*.e g b b b D.. . . . ",
". . . . D.b b e e X.D.K C 7 X X X X X X X X X X X X 7 C K D.X.e e b b D.. . . . ",
". . . . D.b b e e X.C C & X X X X X X X X X X X X X X & C C $.e e b b D.. . . . ",
". . . . D.b , E X.M.C C & X X X X X X X X X X X X X X & C C M.X.E 2 b D.. . . . ",
". . . . D.b , Q =.D.C C & X X X X X X X X X X X X X X & C C D.=.Q , b D.. . . . ",
". . . . D.b , Q =.D.C C & X X X X X X X X X X X X X X & C C D.=.Q , b D.. . . . ",
". . . . D.b , Q =.D.C C & X X X X X X X X X X X X X X & C C D.=.Q , b D.. . . . ",
". . . . D.b , Q =.D.C C & X X X X X X X X X X X X X X & C C D.=.Q , b D.. . . . ",
". . . . D.b , Q =.D.C C & X X X X X X X X X X X X X X & C C D.=.Q , b D.. . . . ",
". . . . D.b , Q =.D.C C & X X X X X X X X X X X X X X & C C D.=.Q , b D.. . . . ",
". . . . D.b , Q =.D.C C & X X X X X X X X X X X X X X & C C D.=.Q , b D.. . . . ",
". . . . D.b , Q =.D.C C & X X X X X X X X X X X X X X & C C D.=.E , b D.. . . . ",
". . . . D.b b e e X.C C & X X X X X X X X X X X X X X & C C X.e e b b D.. . . . ",
". . . . D.b b e e X.z.K 9 3 X X X X X X X X X X X X 3 9 K z.$.e e b b D.. . . . ",
". . . . D.b b g g ^ w.,.) 9 & X X X X X X X X X X & 9 ) ,.w.^ k g b b D.. . . . ",
". . . . D.b b b b , [ z.,.K C # # # # # # # # # # C K ,.z.[ , z b b b D.. . . . ",
". . . . D.b b b b b , [ w.z.C C C C C C C C C C C C z.w.[ , b b b b b D.. . . . ",
". . . . . D.Y b b b b , ^ =.D.D.K C C C C C C K D.D.=.~ , b b b b Y D.. . . . . ",
". . . . . . s.@.b b b b g B =.=.f.z.z.z.z.z.z.f.=.=.B k z b b b @.s.. . . . . . ",
". . . . . . . u.@.b b b g g Q ^ 6.w.w.w.w.w.w.6.Q Q g g b b b @.y.. . . . . . . ",
". . . . . . . . s.Y b b b b , , ' [ [ [ [ [ [ _ , , z b b b Y s.. . . . . . . . ",
". . . . . . . . . D.b b b b b b , , , , , , , , b b b b b b D.. . . . . . . . . ",
". . . . . . . . . . D.Y b b b b b b b b b b b b b b b b Y D.. . . . . . . . . . ",
". . . . . . . . . . . b.z.z.z.z.z.z.z.z.z.z.z.z.z.z.z.z.c.. . . . . . . . . . . ",
". . . . . . . . . . . . . . . . . . . . . . . . . . . . . . . . . . . . . . . . ",
". . . . . . . . . . . . . . . . . . . . . . . . . . . . . . . . . . . . . . . . ",
". . . . . . . . . . . . . . . . . . . . . . . . . . . . . . . . . . . . . . . . "
};
