/* XPM */
static const char *wall[] = {
/* columns rows colors chars-per-pixel */
"40 39 42 1 ",
"  c black",
". c #060606",
"X c #090909",
"o c gray5",
"O c #6A6A6A",
"+ c #6F6F6F",
"@ c gray45",
"# c gray46",
"$ c #7B7B7B",
"% c #7E7E7E",
"& c #808080",
"* c #868686",
"= c #8B8B8B",
"- c #8E8E8E",
"; c #939393",
": c #979797",
"> c #9B9B9B",
", c gray62",
"< c gray63",
"1 c gray65",
"2 c #A9A9A9",
"3 c gray68",
"4 c gray69",
"5 c gray71",
"6 c gray72",
"7 c gray74",
"8 c #C3C3C3",
"9 c gray77",
"0 c #CBCBCB",
"q c gray80",
"w c LightGray",
"e c gray83",
"r c #D8D8D8",
"t c gray87",
"y c #E2E2E2",
"u c #E6E6E6",
"i c #E9E9E9",
"p c gray93",
"a c gray95",
"s c #F6F6F6",
"d c #F8F8F8",
"f c #FDFDFD",
/* pixels */
"6affffffffffffffffy 4iffffffffffffffffd ",
"=6999999999999999ty *5999999999999999ed ",
"&3555555555555555ry $1555555555555555qd ",
"&3555555555555555ry $1555555555555555qd ",
"&3555555555555555ry $1555555555555555qd ",
"&3555555555555555ry $1555555555555555qd ",
"&3555555555555555ry $1555555555555555qd ",
"&:>>>>>>>>>>>>>>>69 $;>>>>>>>>>>>>>>>4e ",
"+++++++++++++++++*- O++++++++++++++++%> ",
"ooooooooX .XooooooooooooooooX .Xoooooooo",
"ssssssssw.4ussssssssssssssssu 1tssssssss",
"q000000ur.-7000000000000000ti *500000000",
"5555555tr %2555555555555555ei #<55555555",
"5555555tr %2555555555555555ei #<55555555",
"5555555tr %2555555555555555ei #<55555555",
"5555555tr %2555555555555555ei #<55555555",
"5555555tr %2555555555555555ei #<55555555",
"<<<<<<<98 %><<<<<<<<<<<<<<<7w #:<<<<<<<<",
"#######;- @################=> O#########",
"                                        ",
"4uaaaaaaaaaaaaaaaar 2taaaaaaaaaaaaaaaap ",
":9qqqqqqqqqqqqqqquy -7qqqqqqqqqqqqqqqtd ",
"&3555555555555555ry $1555555555555555qd ",
"&3555555555555555ry $1555555555555555qd ",
"&3555555555555555ry $1555555555555555qd ",
"&3555555555555555ry $1555555555555555qd ",
"&3555555555555555ry $1555555555555555qd ",
"&,1111111111111118q $>1111111111111116y ",
"$$$$$$$$$$$$$$$$$;> #$$$$$$$$$$$$$$$$=2 ",
"                                        ",
"uuuuuuuu9.<euuuuuuuuuuuuuuuue >quuuuuuuu",
"reeeeeeir.>0eeeeeeeeeeeeeeeui -7eeeeeeee",
"5555555tr %2555555555555555ei #<55555555",
"5555555tr %2555555555555555ei #<55555555",
"5555555tr %2555555555555555ei #<55555555",
"5555555tr %2555555555555555ei #<55555555",
"5555555tr %2555555555555555ei #<55555555",
"2222222q0 %,2222222222222229r #>22222222",
"&%%%%%%,, %%%%%%%%%%%%%%%%%:2 #%%%%%%%%%"
};
