/* XPM */
static const char *floor[] = {
/* columns rows colors chars-per-pixel */
"40 40 178 2 ",
"   c #664C71",
".  c #684E74",
"X  c #6A5075",
"o  c #6C5277",
"O  c #6E5579",
"+  c #6F5579",
"@  c #6F557A",
"#  c #6F567A",
"$  c #70567A",
"%  c #71577B",
"&  c #71587C",
"*  c #72587C",
"=  c #73597C",
"-  c #73597D",
";  c #755B7C",
":  c #745A7D",
">  c #745A7E",
",  c #755B7E",
"<  c #755B7F",
"1  c #765C7F",
"2  c #765D7F",
"3  c #775D7F",
"4  c #775E7F",
"5  c #785F7E",
"6  c #785F7F",
"7  c #79607F",
"8  c #79617F",
"9  c #765C80",
"0  c #775D80",
"q  c #775D81",
"w  c #775E81",
"e  c #785F80",
"r  c #795F80",
"t  c #785E81",
"y  c #785F81",
"u  c #785E82",
"i  c #795F82",
"p  c #795F83",
"a  c #7A5F83",
"s  c #796180",
"d  c #7A6180",
"f  c #7A6081",
"g  c #7A6181",
"h  c #7B6181",
"j  c #7B6281",
"k  c #796082",
"l  c #796083",
"z  c #7A6082",
"x  c #7A6182",
"c  c #7A6083",
"v  c #7A6183",
"b  c #7B6183",
"n  c #7B6282",
"m  c #7B6283",
"M  c #7C6282",
"N  c #7C6382",
"B  c #7C6283",
"V  c #7C6383",
"C  c #7C6483",
"Z  c #7D6483",
"A  c #7A6084",
"S  c #7A6184",
"D  c #7B6184",
"F  c #7B6185",
"G  c #7B6284",
"H  c #7C6284",
"J  c #7C6384",
"K  c #7D6384",
"L  c #7C6285",
"P  c #7C6385",
"I  c #7D6385",
"U  c #7C6286",
"Y  c #7C6386",
"T  c #7D6386",
"R  c #7D6387",
"E  c #7D6484",
"W  c #7D6485",
"Q  c #7E6584",
"!  c #7E6485",
"~  c #7E6585",
"^  c #7F6585",
"/  c #7D6486",
"(  c #7D6487",
")  c #7E6486",
"_  c #7E6586",
"`  c #7F6586",
"'  c #7E6487",
"]  c #7E6587",
"[  c #7F6587",
"{  c #7F6686",
"}  c #7E6488",
"|  c #7E6588",
" . c #7F6588",
".. c #7E6489",
"X. c #7F6589",
"o. c #7F6688",
"O. c #7F6689",
"+. c #7F658A",
"@. c #806686",
"#. c #806786",
"$. c #806687",
"%. c #806787",
"&. c #816787",
"*. c #816887",
"=. c #816987",
"-. c #806688",
";. c #816788",
":. c #806689",
">. c #806789",
",. c #816789",
"<. c #80668A",
"1. c #80678A",
"2. c #81678A",
"3. c #80668B",
"4. c #81678B",
"5. c #816888",
"6. c #826988",
"7. c #826989",
"8. c #836989",
"9. c #836A89",
"0. c #836B89",
"q. c #81688A",
"w. c #82688A",
"e. c #82698A",
"r. c #83698A",
"t. c #82688B",
"y. c #82698B",
"u. c #83698B",
"i. c #836A8A",
"p. c #836B8A",
"a. c #836A8B",
"s. c #846A8A",
"d. c #846B8A",
"f. c #856B8A",
"g. c #846A8B",
"h. c #846C8A",
"j. c #856C8A",
"k. c #856D8A",
"l. c #856C8B",
"z. c #856D8B",
"x. c #866D8B",
"c. c #866E8B",
"v. c #82688C",
"b. c #82698C",
"n. c #83698C",
"m. c #82688D",
"M. c #83698D",
"N. c #846A8C",
"B. c #846B8C",
"V. c #856B8C",
"C. c #846A8D",
"Z. c #846B8D",
"A. c #846A8E",
"S. c #846B8E",
"D. c #856B8E",
"F. c #856C8C",
"G. c #856D8C",
"H. c #866D8C",
"J. c #866D8D",
"K. c #866E8C",
"L. c #876E8C",
"P. c #876E8D",
"I. c #876F8D",
"U. c #856C8E",
"Y. c #866C8E",
"T. c #866C8F",
"R. c #866D8F",
"E. c #876E8E",
"W. c #876F8E",
"Q. c #886E8D",
"!. c #886F8E",
"~. c #886F8F",
"^. c #88708E",
"/. c #89708E",
"(. c #89708F",
"). c #89718F",
"_. c #8A708F",
"`. c #8A718F",
/* pixels */
"b.:.b.Z.b.b.Z.b. .b. .:. .! v :.:.R S , , t  .! t S Z.:.t.:. . .:. . . .R v , 1 ",
"b.:.t.b.t.t.Z.b.R :.b.:.! R v :.t.R t - , t R R - S t.b.b.:. .! :.:. .R ! v 1 , ",
"Z.:.:.:.t.t.t.t. .:.Z.:.S v t :.:.t 0 - , t t t X R :.:.:.! :.R  . .:. .R S t 0 ",
"f.@.! :.b.t.Z.t.:.t.Z.! R S t  .! 0 0 , 1 1 0 +   R  .:.t.S R t ! :.:.:. .S t t ",
"t.! R :.b.t.Z.Z.:.t.t.! R S R :.:.t 0 , 0 , , & . R :. .b.R 0 0 ! :. .:. .v S t ",
"@.! R :.t.t.U.Z.:.:.t.! R ! :.:.! t 0 , , - - t o R t. .:.v , t :.:.!  .R v S 0 ",
":.:. . .b.t.U.l.! :.t.R R :.t.! t 1 , , , * %  .- t :. .t.t , v :.b.:. .R t S 0 ",
":.:.R ! t.t.U.l.! :.t.t R t. .v t t , 1 , + + :.S S :.R :.v 0 R :. .t. .R v R S ",
" .:.R :.:.t.Z.t.!  .! t v Z.R t R t , , , + + :.0 S :.t R t t ! :.! t.@.v ! ! R ",
"! :.!  .! :.:.:.R ! R t v b.S t  .v , 1 0 % , b.v v :.v S 0 t :.R R t.*.N R R ! ",
"! :.! ! R :. .t.R R R t t :.v v t.R 0 t t % t Z.R v :.R R t 0  .R S t.*.v v S R ",
":.:.R  .:.t.:.:.S v v t v  .v S  .! v S t - t f.! R :.R ! R t S R  .t.f.N R v v ",
":.R S R :. .:.:.S 1 , t R R t !  . .R R t - t f.:.! :.S R :.! R S R t.t.N R v R ",
":. .R S :.! ! :.! 1 , t R R 0 ! ! :. .! t - R U.:.R :.t R :.:.:.R R t.*.! R v R ",
":.:.R t R S R ! ! , 0 S R R t :.R :.:. .t 0 t.l.:.R :.t S  .:. .! :.t.*.R t v R ",
" .:.! t S R R  .R , 0 S R t t :.S :.:.! 0 R Z.t.*.R  .S v ! ! R R ! t.@.v t S S ",
"R :.:.v R R t  .S , 0 R S 0 t  .t ! :.:.t ! Z.t.@.v ! ! 1 t v S R S @.:.S t v v ",
"R :.R v ! S t :.! , S R v 1 t  .v R :.:.t ! Z.t.:.t R :., - , 1 t S ! :.R t S R ",
"R ! v R R v t :.:.t R R v 1 R  .R  .t.R t :.Z.Z.:.t R :.0 , , , + v R ! v , R S ",
"R :.R  .:.v S t.:.t R R R 0  .:.R :.t.S t :.Z.b.t.v v  .0 , 1 1 + v R  .S 1 S v ",
"S :.R R  .S R :. .0 t S R t R :. .:.:.v S :.t.t.*.v t v 0 1 t t 1 S R  .R 1 5 ! ",
"R R t v R R S R ! t 0 R ! t  .b. .R R S :.t.t.t.@.v t v t t v v v S R ! ! 7 v t.",
"t R 0 S S R S S R t 1 R ! t ! t.R R S  .Z.Z.t.@.! v 0 t v t t R v v R v ! 7 v f.",
"v v v S t R R v v 1 1 R R t  .:.R R R ! t.f.@.t.! v 0 1 S R t R v 7 ! v C 7 C l.",
"! t v t t R  .R S - - t v v :.t.R R R ! t.l.*.t.! v t 0 S ! v R v v ! C C 7 ! l.",
" .v 0 0 R  .:. .S - - 1 t v :.b.! R R ! l.~.U.U.t.v R v ! ! R ! v v R R R v v U.",
" .t , t  . .:. .t - 1 0 0 t :.b.! S R t.f.U.l.`.f.v R R :.:.:.! v N ! S R v t U.",
" .0 , t R :.:.! t - t 0 S R :.t.! R R t.*.f.l.`.l.v ! R :.t. .! v ! ! v S v t Z.",
"R 0 t v  .:.b.! 0 - 0 , S R :.:.! R ! :.t.l.U.~.f.R  .:. .:.! ! v R :.S S S t b.",
"R v t R :.:.b.! t t 0 1 S R :.! R S ! :.t.l.U.~.U.R :.t. . .!  .t R :.! S S t :.",
"S R R  .b.:.:. .R ! t 0 ! R :.S S v R :.f.`.l.~.~.!  .Z.:.:.! ! 1 S :.:.t v t R ",
"R R  .:.Z.:.b.:.R R t 0 !  .! v S t ! :.l.U.t.U.`.t.! b.:. .S R 1 t :.:.0 t t R ",
":. .R :.b.:.b.:.R S , 0 :.:.R v v t ! :.l.U.l.`.`.t.R :.:.! S R 1 1 :.:.S t t R ",
"Z.:. .:.:.R b. .R R 1 t :. .v S S 0 R ! t.l.l.`.`.U.R :.t.R ! R 0 0 :.t. .t t R ",
"Z.b.t.b.t.R b.! R  .S S  . .S R S 0 R  .f.l.l.U.`.U.! !  .R  .R 0 v :.Z. .S t t ",
"Z.Z.b.b.:.! b. .R  . .R :.:.R R S t R  .t.l.l.U.`.U.:.!  .! :.! t S :.U.! R t , ",
"Z.Z.b.:. .:.b.:.R  .:.! t.R R R R S R R t.l.l.U.~.~.! R :. .b. .t v  .Z.S S 0 t ",
"b.b.b.t. .t.t.:.R :.:. .:.R R R  . .! R :.U.U.t.l.~.N v t.:.Z.:.v t  .t.t S S R ",
"b.b.b.b.:.t.t. .R  .:.:. .R S R :.:.! ! b.U.U.@.f.l.v N t.t.Z.:.t v v ! t R :.! ",
"Z.Z.Z.b. .:.t.:.R R t.:. .! S R :.! t ! Z.U.U.@.f.U.N v t.t.b. .0 t t v S :.:.! "
};
